<svg xmlns="http://www.w3.org/2000/svg" xmlns:xlink="http://www.w3.org/1999/xlink" fill="#d69d36" viewBox="0 0 470 400"><path id="a" d="M121 336c-19-16-22-39-30-59q-8-19-23-35c12 34 5 58 34 82l-14-9c-23-19-57-22-71-53 4 23 22 43 41 56 19 12 43 11 63 18m50 12 11-2q-21-3-37-16-21-22-44-39c17 34 23 48 51 54l-12-2c-30-6-66 2-88-23 9 16 26 29 42 35 26 8 53-1 77-7m40-2c-48 0-73 42-120 14 23 28 60 30 90 11 12-8 23-19 38-19 23 0 48 24 69 46l10-9c-22-21-54-43-87-43M76 299s-6-11-8-18c-7-27-3-60-15-86 2 15-4 28-5 42-2 19 5 32 10 41l-10-14c-14-22-43-37-45-64-4 59 37 75 73 99M62 124q6-13 8-27l-7 11c-19 16-30 25-35 50l2-22c2-22-10-46 3-65a74 74 0 0 0-20 50c0 24 14 41 15 64 4-24 24-41 34-61m-7-44q15-11 28-25 12-19 29-37c-16 7-34 13-45 30-6 10-7 22-12 32m-20 48q7-12 18-22c18-13 36-30 37-52-10 24-41 28-48 53l5-18c5-17 4-37 21-48-33 7-35 43-33 70zm5 116s-2-19 1-27c8-24 16-50 15-75-8 30-33 40-22 81q-5-12-8-25c-6-22-23-41-18-67-8 23-8 41 0 65 5 18 23 31 32 48"/><use xlink:href="#a" transform="matrix(-1 0 0 1 470 0)"/><g fill="none" stroke="#d69d36" stroke-width="4"><circle cx="235" cy="167" r="163"/><circle cx="235" cy="167" r="129"/><circle cx="235" cy="167" r="98"/><circle cx="235" cy="167" r="64"/><circle cx="235" cy="167" r="33"/><path d="M235 4v130m0 66v130M120 52l92 92m46 46 92 92M72 167h130m66 0h130M120 282l92-92m46-46 92-92"/></g><path d="M227 207q0-3 2-3h2v2l-1 2h-2zm8-1h1v4l-2-1h-1v1h-2v-2l1-1 1-1v-1h-1v-3q2-3 3-1v2l1 1h-1zm92-61-2 1v2l-1 1v1l-2 2-1 1h-4q-1-2 1-2c2 0-1-3-1-3l2-1v-4l-3-2h-3v1h-2l-1 2c0 1-4 4-3-1l1-1v-1h-3l-2-1v-2l-3-4h-5v-1h-2q-5-3-6 2 2 3 0 3l-2-1h-1v3q0 2-1 1l-2-2s-2-4 0-4c3-1 0-2 1-3l2-1h2l-3-1h-3l-3 4q-4 2-4-3c0-5-3 0-4 1h-3q-2 2-3-1l1-2h-1l-1 2q-3 0-2 2l-1 1 1 2v1l2 1-4 1q-1 2-4 1l-2-4h-4l3-3 1-5-3 1-2 1-1 1-1 1v2h-5l-2-1-2-1-2 1h-4v2l5 1v4l-2-1h-1l-1-1h-1v4l1 1h1l2 1v2h4l1 1h2l5 5v1l-1 1h-2v1h1l1 1 2-3q3 0 3 2l-1 1v2h1c2 2-1 3-1 3v2l-2 1-1 1-2 1h4l2-1v2h1v2l1 1v5l1 1q3 0 1 2v3l-1 1v1l-1 1v2h-9q0 3-1 2l-1 1q0 3-1 2v3l-2 2v5h3l3 2h1v-3l-1-1v-5l2-2c2 0 1 5 1 5l2 2c2-1 1 2-1 1s0 2 0 2h1l-2 2-1 1h-2l-2-1-1-1h-1v2l-1 1-2 2c3 0 0 2-1 2q2 2-4 1v1h-1l1 2h1v3c0 2-6 1-6 0v3h-1v5h1v1h5l6-7h6l2 1h2q2 1 1 2h1l1-2h1l-1-1-2-1-2-1q-2-1 1-1h3l2 4 1 1h2v1h2v1h3l1-1-3-1v-1l-2-1q-1-5 1-2h1v-3h1l-1-3-1-1v-1h5v-3h1v1h5l4-4v-1h-2v-4q2-2 2 0v2q4-2 4 1t2 0c2-3 2 2 1 3s-3 0-3-1h-1l-3 1v-1l-4 4 1 3-2 1-5 1v1q-3 0-2 4v2l1 1 3-1q0-2 3-3 2 0 3 3 0 3-1 2v1l-2 1-1 1v1h-5l-3 1v1h-2s-2 1-1 2c1 2-4 2-6 0h-2l-2-1v-2q-1-3-3-1-5 2-6 1l-2 1-2 1v1h-3l-1 1-1-1h-1l-1 2q-6 1-7 3l-1 1-2 1-1 1-2 1v4h-1v2h-1v1h-2l1 3h1q3 2 2 3l1 1 1 2 1 2q1 3 3 2l1 2h7v1h9c0-1 5-2 6 0h5l2 3 2 4 3 1h2v3h2v10l1 1v1l2 2h3l6 7 5 2 1 2h1l1-1h4l2-2h2l19-16-2-1v-3q4-6 0-7-2-1 1-3h1v-2l4-3v-3l-8-7c-4-1 0-9 2-9 3 0 0-13 0-13h-1v-4h-2l-3 3v3c-1 4-11 3-11 3l-4-2q-1-2-4-2h-2l-3-1-3-2h3l-1-2 4 2 3 1h1l2 1h5l1 1 2 1h5l1-3 1-1-1-2 2-1v-2h1v-4l1-8-3-2h-3l-1 2v2l-1 1-3 1-1 1h-2l-1-3h3l2-1 1-2q1-2 2-1c1 1 4-4 4-5s2-6 4-6h4q2-2 1-3h3v1h3q0-2 2-1l4-1c0-2 4-1 4-1v-2l-3-3-3-2q-4-3-3-4l-1-3-3-4q-2-3 0-4l2-2 1-3 3-1v-2h-1l2-3h7l2-4 1-1 2-2c1-1 0-6-1-5m46 54-3 1 1 1zm5 20h-1l1 2zm4-4v2h1zm2-1-1-1h-1l1 1v1h1zm-9 7q2-1 2 1t-2 2q-2-1 0-3m-40 13v-1h2v2zm0 4-1-1v2l1 1zm-124 31-1 1h-1l1 1h2l-1-1zm12 12h1v1l1 1 1-2h-1zM177 64l1 1-1 1zm30 32h1l-1 1zm-4 0v2h3l-1-1zm55-47h-2v1h2l1 2v-1zm5-35-1 1 1 1h1l2-2h-1zm8 5v-1l-1 1 1 1zl1-2zm-55 35h4l2 1v1h-4zm19-2q4 1 4-1l1-1-1-2-2-1q-1-3-2-1l-1 3zm17-29q-3 0-1 3h5v-1h9l1-2h2v-2h-9l-1 1h-4zm0 9-2-3v-1l-1-1v-3h-3l-2 1-2 1h-3l-1 2h5l1 2h4l3 3q3 1 1-1m8 16 1-2v2zm50-2c-1-1 3-2 4-1l3 6c0 2-3-2-3-2l-2-1q-2 0-3-2m-18 5-1 3-1 2h3l1 2c2 0 3 4 3 4l1 1-1 4c-1 1 3 1 3 2q1 3-1 4c-2 1 2 1 2 2v1l1 5h2c0-2 5-3 5-2q5 3 5 6t-1 1v5q5 3 5 6h2q1-3 3-1l1 4v1l2 1h1l1 1h2l2 3h3l2 2 2 2 2 1 1 2 1 2 1 1 1 1 1 2 3-1 2-1 3-3 3-3q2-3 0-4l-2-2-2-3q-2-1-2-3l-2-3-2-2v-1l-2-1-4-5v-1h-1v-2l-2-1h-1l-4-4v-2h-2v-3l1-5-4 1 1-2v-1l-1-1h-3l-1-3v-3h-1l-1-1h-1v-2h-1l-1-1-1-2h-3l-1-2-2-2h-4l-1-1h-2l-1-1v1h-4v1zm-31-1 3 1 2 1h2v-1l-1-2h-2l-1-1zm0 5v1l2 1zm19 19v-1l-1-2-2-1-3-2-2-2 1-1h-3v-2h-2l1 2q-1 2 2 3l2 1 2 1h1zm1 4 1-3 1 1 1-1h2l3 2-1 2h-1q-2-2-3 0 1 2-1 4l-3-1zm28 23 1-3-2-3q-1-3-3-2c-2 1 0-4 0-4h2c1 1-6-9-7-8s-4-1-4-2c0-2-6-7-6-7h-3v2h2q4 3 3 4l-2 1 1 2h2v3l3 2v3q-2 0-1 3l1 1h1l1 1v2q4 1 4 3c0 2 0 0 2 2l2 2zm-39 22 1 1 3 1 2 2 3 1 3-1 3 1 3 2v-4l-3-3h-8l-2-2h-2l-1 1zm-8 2h2v1l2 1 3-1v-2h-2l-2-1zm-8 0h1v1l-1 1zm3 0v1h4v-1zm32-1h2v1h-2zm5 4v-1h1zm14-17h2v1h-2zm3 1v1h-1zm3-14h-1v-1h1zm-1 21v1h-1zm2 1h1v1zm-5-14c1 0 0 4 3 4l2 1q2 0 2-3c0-3 0-1-1-2l-1-1-2-2-1-2-2 1-2 3q0 2 2 1m7 10 4-2 1-1 1 2 1 1 1 1-2 1v1h-4l-1-2zm-22 14h3l-1 1h-2zm11-2h-5q-1-2 2-2 3-1 2-3l-1-1v-2l-1-1h2l2-4 3-1 1 2-1 2 1 2h-3v1q1 2-1 2l-1 2h4l2 1q1 1-1 1h-4zm19-19-1-1-2-1-1-2-1-2h2l1 2 2 1 1 1 1 1zm-1 2 1 2 1 1 2 1v2l1 2 1 1 1-2-1-2-1-3-2-1-1-1zm11 27-1-1v-2l-1-2-1-2-1-1v-3l-1-2 1-2v-2l2 2v4l2 2v3l1 3zm0 13 1-1zm1-6 1 1v1h-1zm-2-5h-4l-2 3 2 2c1 1 1 8-1 9s0 1 0 1l-1 4h2l2-2 2-4v-3l1-3v-6zm-7-17h-3l-1-2h-4l-3 1v2l-1 1v1h2v1c0-1 5 1 5 3 0 0 4 3 3 5q3 2 2 3h3l1-2 1 1v-1l-2-1-1-5-1-1 1-2h-2l1-2zm-6 41-1-1v-1h-1l-1 1-1-1v1l1 1zm4-2h2v-1h-2zm-3 21c-1-1 3-2 4 0s0 1-1 1q-1 1-3-1m-18 33h2v3h-2zm8 31q0 2-2 1c-2-1 1 1 1 2h2v-3zm4 7h1v3c2 2 9 0 9 0v-6l-1-1v-4c0-2-4-6-4-5l-2 1-1 5-1 3zm-47-36-1-1-1 1h1zm-25 3v2m5 2 1-2h-1l-1 1zm-1-53q-1 3 3 6l-2 1-3-4v-3zm-9 9 1-2v-3l-3 3q3 0 2 2m-9 11-3 3-2-1-1-1v-2h2v1zm-3-21v-4l-3-1-1 1-1 3v1l-1 1-1 4-1 1v1l-3 1-1 3h-1l-1 2v5s1 3 2 2l2-2 1-1h4q2-2 3 0h1l1-2h2v-2h1v-3q4-3 3-4v-3l-1-2-2-1zm-7-6h-2l-3 3v1l-1 1-1 3h-3l-1 3 1 3 3 1v-2h1v-2l1-1 1-2v-1l2-1h2l1-1v-4l1-1 2-1v-3h-1v-1h-2l-1 1-1 1h1l1 1-1 1zm-53 20-1-1zm0 19-1-1zm-2-3-1-1zm-2 4-1 1v1h1zm1-8v1h1zm0-9v-2l-2 2-2-1v4l3 4 1-3v-1l-1-1zm-1-15h-3v1h1v8h-2v2q2-1 3 2c1 3 1-1 1-1zm67-33h-2v-4h1v-2h-6v-2l1-1h-1l-1 1-1 2h-1v1h-2v2l-4 4h-10l-2-1h-3q-2 2-3 0l-6-5c-3-3-8 1-8 2 0 2-4 1-4 1h-4l-2 1-1 1h-1l-1 1h-2 5q2 2-1 3h-2l-1 1h-2l-1 1h-4l-1 2-1 2-1 2-1 2-1 2h-1v5l-2 1v2l-3 3 1 3-3 3 1 2-2 1v1l-1 4h2v2q-2 0-2 2-1 2-2-1t-3-1l-1-2c-2-1-8 1-8 1l-1 2-3 4-2 3h-1v9l1 2q-3 2-2 3l-3 1-1 1h-4l-1 1-2-1h-8v-1l-2-1v-1h-3v1h-3q-1 4-3 3-3-1-1-3h3v-1l-6-1-1 1-2 1v2l-2 1 1 2-1 3 1 3-1 1 2 2v3l1 3 1 1v3h3v-5c-2-2 2-3 2-2l2 2q1 4 4 1t2 0c-1 3 4 4 4 4h2l1 3q3-2 4 4l5 5 2-1q1-1 2 2l5 5 4 1 5 3h4c1-3 5 0 5 1q2 3 4 2 3-1 2 2 0 3 2 2h9l3-3h9c4 0 2-6 1-6-2-1 0-6 0-6l-12-12c-3 0 0-4 0-4 2-1-1-3-1-3l-1-5q-3-5-2-6v-2c-3-3 1-3 1-3l-1-3v-3h-3v-8l-6-8v-3l-1-3v-3l4-1v-1h2v-4q2-3 3-1h2l1-3 1-2h-2c-2-1-1-6-1-6 3-4 7-2 7-2h2c3 3 0 7 0 7v4l1 6-3 1q-2 3 1 4 1 3-2 2c-3 0 2 2 1 2q3 0 2-2l4-3c2-1 4 3 4 3h7q3 3 2 4c2-2 6 0 3 2q4 2 3 3 3 0 2 1l1-2c-3-2 3-3 1 1l-1 1 2 1v4c4 0 3-5 3-5h2l1-1c-1-5 3-6 3-6q3-3 2-5-2-3 1-1c3 2-1-4-1-4l-1-2h-2v-2h-3l-1 3h-1v-1l-1 2h-3v-2h2l1-1v-3h2l3-1q1-3 2-2l2 2v1l-1 1v1l1 2h1q3-4 5-1l1-2q-2-3 1-3l2-2q1 1 0 0l1-3q0-3 2-2v-3h-2q-2 2-2 0 1-3 2-2v-1l1-1v-1h3l2-1 1-1h2l3-3v-3zm-90 152-1-2h2l2 2 1 2-2 1v-1l-2-1zm-37-51 1 2 1 1 1 3v1l-2-2-2-2v-1l-1-3zm-10-9v2h2v2h1l-1-2-1-1zm131-103v1h-1zm1 0v-1h2v1zm3-1v-1h-1l-1 1zm1-2h2v1zm9 1v-1h1zm3 0h-1v1zm1 1h2v1zm2 1v1h1z"/></svg>